<svg width="740" height="125" viewBox="0 0 740 125" fill="none" xmlns="http://www.w3.org/2000/svg">
<path d="M431.966 50.8711V34.8711C431.966 16.0934 447.189 0.871094 465.966 0.871094H500.5H705.943C724.712 0.871094 739.931 16.0803 739.943 34.8496L739.979 90.9785C739.99 109.765 724.765 125 705.979 125H34C15.2223 125 1.49699e-05 109.778 3.34362e-05 91L8.86342e-05 34.8711C0.0001071 16.0934 15.2224 0.871094 34.0001 0.871094H273.955C292.733 0.871094 307.955 16.0934 307.955 34.8711V50.8711C307.955 84.0082 334.818 110.871 367.955 110.871H371.966C405.104 110.871 431.966 84.0082 431.966 50.8711Z" fill="url(#paint0_linear_436_2577)"/>
<path d="M431.966 50.8711V34.8711C431.966 16.0934 447.189 0.871094 465.966 0.871094H500.5H705.943C724.712 0.871094 739.931 16.0803 739.943 34.8496L739.979 90.9785C739.99 109.765 724.765 125 705.979 125H34C15.2223 125 1.49699e-05 109.778 3.34362e-05 91L8.86342e-05 34.8711C0.0001071 16.0934 15.2224 0.871094 34.0001 0.871094H273.955C292.733 0.871094 307.955 16.0934 307.955 34.8711V50.8711C307.955 84.0082 334.818 110.871 367.955 110.871H371.966C405.104 110.871 431.966 84.0082 431.966 50.8711Z" fill="url(#paint1_linear_436_2577)"/>
<defs>
<linearGradient id="paint0_linear_436_2577" x1="133.079" y1="195.496" x2="227.915" y2="-104.872" gradientUnits="userSpaceOnUse">
<stop stop-color="#AFB2BA"/>
<stop offset="1" stop-color="#0F0E0E"/>
</linearGradient>
<linearGradient id="paint1_linear_436_2577" x1="691.5" y1="194.871" x2="368.117" y2="-34.8631" gradientUnits="userSpaceOnUse">
<stop stop-color="#444444"/>
<stop offset="1" stop-color="#0F0E0E"/>
</linearGradient>
</defs>
</svg>
