<svg width="28" height="28" viewBox="0 0 28 28" fill="none" xmlns="http://www.w3.org/2000/svg">
<path d="M14 0C21.7089 0 28 6.29114 28 14C28 21.7089 21.7089 28 14 28C6.29114 28 0 21.7089 0 14C0 6.29114 6.29114 0 14 0Z" fill="#FB43FF"/>
<path d="M14 0C21.7089 0 28 6.29114 28 14C28 21.7089 21.7089 28 14 28C6.29114 28 0 21.7089 0 14C0 6.29114 6.29114 0 14 0Z" fill="url(#paint0_linear_436_2597)"/>
<path d="M14 0C21.7089 0 28 6.29114 28 14C28 21.7089 21.7089 28 14 28C6.29114 28 0 21.7089 0 14C0 6.29114 6.29114 0 14 0Z" fill="url(#paint1_linear_436_2597)"/>
<path d="M19.0507 11.1649C19.0507 11.4307 18.7849 11.6079 18.6077 11.5193C17.9874 11.4307 17.4558 11.4307 16.9241 11.5193C15.7722 11.6079 14.8862 11.9624 14.0001 12.3168C13.9115 12.3168 13.9115 12.3168 13.8229 12.4054C12.9368 12.7598 12.0507 13.0257 11.076 13.0257C10.7216 13.0257 10.2786 13.0257 9.74692 12.937C9.30388 12.8484 9.03805 12.5826 8.94945 12.1396C8.86084 11.7851 8.86084 11.5193 8.86084 11.1649C8.86084 8.41806 11.076 6.11426 13.9115 6.11426C16.8355 6.11426 19.0507 8.32945 19.0507 11.1649Z" fill="url(#paint2_radial_436_2597)"/>
<path d="M9.39226 13.6464C9.03783 13.5578 8.6834 14.0008 8.86061 14.2666L13.8226 23.3046C13.9112 23.4818 14.0885 23.4818 14.1771 23.3046L19.6707 13.3805C19.848 13.0261 19.6707 12.5831 19.3163 12.4945C18.4302 12.3173 17.7214 12.3173 17.1011 12.4059C16.1264 12.4945 15.2404 12.8489 14.3543 13.1147C14.2657 13.1147 14.2657 13.1147 14.1771 13.2033C13.291 13.5578 12.3163 13.9122 11.1644 13.9122C10.6328 13.8236 10.1011 13.8236 9.39226 13.6464Z" fill="url(#paint3_linear_436_2597)"/>
<path d="M14 13.3793C14 13.2907 14.0886 13.2021 14.1772 13.1135C14.2658 13.1135 14.2658 13.1135 14.3544 13.0249C15.2405 12.6704 16.038 12.4046 17.1013 12.316C17.7215 12.2274 18.519 12.2274 19.3165 12.4046C19.6709 12.4932 19.9367 12.9363 19.6709 13.2907L14.1772 23.2148C14.1772 23.3034 14.0886 23.3034 14 23.3034V13.3793Z" fill="url(#paint4_linear_436_2597)"/>
<defs>
<linearGradient id="paint0_linear_436_2597" x1="7.51844" y1="2.24647" x2="19.9263" y2="24.7804" gradientUnits="userSpaceOnUse">
<stop stop-color="#FF9FB2"/>
<stop offset="1" stop-color="#A3C9FF"/>
</linearGradient>
<linearGradient id="paint1_linear_436_2597" x1="10.0555" y1="-0.805532" x2="19.5248" y2="34.7999" gradientUnits="userSpaceOnUse">
<stop stop-color="#FFD1A8"/>
<stop offset="0.9991" stop-color="#FF7284"/>
</linearGradient>
<radialGradient id="paint2_radial_436_2597" cx="0" cy="0" r="1" gradientUnits="userSpaceOnUse" gradientTransform="translate(17.0615 7.60589) rotate(149.973) scale(8.76395 10.4733)">
<stop offset="0.1168" stop-color="#846C6B"/>
<stop offset="0.7344" stop-color="#1C0008"/>
<stop offset="1" stop-color="#5F4A48"/>
</radialGradient>
<linearGradient id="paint3_linear_436_2597" x1="14.3009" y1="12.6021" x2="14.3009" y2="23.4448" gradientUnits="userSpaceOnUse">
<stop stop-color="#866767"/>
<stop offset="0.4688" stop-color="#180208"/>
<stop offset="1" stop-color="#2E1015"/>
</linearGradient>
<linearGradient id="paint4_linear_436_2597" x1="16.8933" y1="12.3363" x2="16.8933" y2="24.1655" gradientUnits="userSpaceOnUse">
<stop stop-color="#A77874"/>
<stop offset="1" stop-color="#090404"/>
</linearGradient>
</defs>
</svg>
