<?xml version="1.0" encoding="UTF-8" standalone="no"?>
<svg
   width="106.5745"
   height="24.28573"
   viewBox="0 0 106.5745 24.28573"
   fill="none"
   version="1.1"
   id="svg54"
   sodipodi:docname="OnGelato.svg"
   inkscape:version="1.1.2 (0a00cf5339, 2022-02-04)"
   xmlns:inkscape="http://www.inkscape.org/namespaces/inkscape"
   xmlns:sodipodi="http://sodipodi.sourceforge.net/DTD/sodipodi-0.dtd"
   xmlns="http://www.w3.org/2000/svg"
   xmlns:svg="http://www.w3.org/2000/svg">
  <sodipodi:namedview
     id="namedview56"
     pagecolor="#ffffff"
     bordercolor="#666666"
     borderopacity="1.0"
     inkscape:pageshadow="2"
     inkscape:pageopacity="0.0"
     inkscape:pagecheckerboard="0"
     showgrid="false"
     inkscape:zoom="5.8996168"
     inkscape:cx="48.053969"
     inkscape:cy="15.509482"
     inkscape:window-width="1920"
     inkscape:window-height="1016"
     inkscape:window-x="0"
     inkscape:window-y="0"
     inkscape:window-maximized="1"
     inkscape:current-layer="svg54"
     fit-margin-top="0"
     fit-margin-left="0"
     fit-margin-right="0"
     fit-margin-bottom="0" />
  <path
     opacity="0.9"
     d="m 9.547,11.84583 c 0,1.1315 -0.207,2.1043 -0.621,2.9184 -0.4139,0.8107 -0.9814,1.4351 -1.7024,1.8732 -0.7175,0.4347 -1.5334,0.652 -2.4475,0.652 -0.9177,0 -1.737,-0.2173 -2.4579,-0.652 C 1.6006,16.19933 1.0349,15.57323 0.6209,14.75903 0.207,13.94493 0,12.97383 0,11.84583 c 0,-1.1315 0.207,-2.1026 0.6209,-2.9133 0.414,-0.8141 0.9797,-1.4385 1.6973,-1.8731 0.7209,-0.4381 1.5402,-0.6572 2.4579,-0.6572 0.9141,0 1.73,0.2191 2.4475,0.6572 0.721,0.4346 1.2885,1.059 1.7024,1.8731 0.414,0.8107 0.621,1.7818 0.621,2.9133 z m -1.5834,0 c 0,-0.8624 -0.1398,-1.5886 -0.4192,-2.1785 C 7.2684,9.07403 6.889,8.62553 6.406,8.32203 5.9265,8.01493 5.3832,7.86143 4.7761,7.86143 c -0.6106,0 -1.1557,0.1535 -1.6352,0.4606 -0.4795,0.3035 -0.859,0.752 -1.1384,1.3453 -0.276,0.5899 -0.4139,1.3161 -0.4139,2.1785 0,0.8624 0.1379,1.5903 0.4139,2.1836 0.2794,0.5899 0.6589,1.0384 1.1384,1.3454 0.4795,0.3036 1.0246,0.4554 1.6352,0.4554 0.6071,0 1.1504,-0.1518 1.6299,-0.4554 0.483,-0.307 0.8624,-0.7555 1.1384,-1.3454 0.2794,-0.5933 0.4192,-1.3212 0.4192,-2.1836 z m 4.9998,0.5795 v 4.7192 h -1.5471 v -7.9481 h 1.485 v 1.2937 h 0.0984 c 0.1828,-0.4209 0.4691,-0.759 0.8589,-1.0142 0.3933,-0.2553 0.8883,-0.3829 1.4851,-0.3829 0.5416,0 1.0159,0.1138 1.423,0.3415 0.4071,0.2242 0.7227,0.5588 0.9469,1.0038 0.2243,0.445 0.3364,0.9953 0.3364,1.6507 v 5.0555 h -1.5472 v -4.8692 c 0,-0.5761 -0.1501,-1.0263 -0.4502,-1.3506 -0.3001,-0.3277 -0.7123,-0.4915 -1.2367,-0.4915 -0.3588,0 -0.6779,0.0776 -0.9573,0.2328 -0.276,0.1552 -0.495,0.3829 -0.6571,0.683 -0.1587,0.2967 -0.2381,0.6555 -0.2381,1.0763 z"
     fill="#f2f2f4"
     id="path2" />
  <mask
     id="mask0_3086_70996"
     maskUnits="userSpaceOnUse"
     x="46"
     y="4"
     width="25"
     height="26">
    <path
       d="m 58.303,4.85547 c 6.6863,0 12.1429,5.45663 12.1429,12.14283 0,6.6863 -5.4566,12.1429 -12.1429,12.1429 -6.6862,0 -12.1428,-5.4566 -12.1428,-12.1429 0,-6.6862 5.4566,-12.14283 12.1428,-12.14283 z"
       fill="#ffffff"
       id="path4" />
  </mask>
  <g
     mask="url(#mask0_3086_70996)"
     id="g19"
     transform="translate(-22.1255,-4.85547)">
    <path
       d="m 58.303,4.85547 c 6.6863,0 12.1429,5.45663 12.1429,12.14283 0,6.6863 -5.4566,12.1429 -12.1429,12.1429 -6.6862,0 -12.1428,-5.4566 -12.1428,-12.1429 0,-6.6862 5.4566,-12.14283 12.1428,-12.14283 z"
       fill="#fb43ff"
       id="path7" />
    <path
       d="m 58.303,4.85547 c 6.6863,0 12.1429,5.45663 12.1429,12.14283 0,6.6863 -5.4566,12.1429 -12.1429,12.1429 -6.6862,0 -12.1428,-5.4566 -12.1428,-12.1429 0,-6.6862 5.4566,-12.14283 12.1428,-12.14283 z"
       fill="url(#paint0_linear_3086_70996)"
       id="path9"
       style="fill:url(#paint0_linear_3086_70996)" />
    <path
       d="m 58.303,4.85547 c 6.6863,0 12.1429,5.45663 12.1429,12.14283 0,6.6863 -5.4566,12.1429 -12.1429,12.1429 -6.6862,0 -12.1428,-5.4566 -12.1428,-12.1429 0,-6.6862 5.4566,-12.14283 12.1428,-12.14283 z"
       fill="url(#paint1_linear_3086_70996)"
       id="path11"
       style="fill:url(#paint1_linear_3086_70996)" />
    <path
       d="m 62.6858,14.5408 c 0,0.2306 -0.2305,0.3843 -0.3843,0.3074 -0.5379,-0.0768 -0.9991,-0.0768 -1.4602,0 -0.9991,0.0769 -1.7676,0.3843 -2.5361,0.6917 -0.0769,0 -0.0769,0 -0.1537,0.0769 -0.7686,0.3074 -1.5371,0.5379 -2.3825,0.5379 -0.3074,0 -0.6917,0 -1.1528,-0.0768 -0.3843,-0.0769 -0.6148,-0.3074 -0.6917,-0.6917 -0.0768,-0.3074 -0.0768,-0.538 -0.0768,-0.8454 0,-2.3825 1.9213,-4.3806 4.3806,-4.3806 2.5362,0 4.4575,1.9213 4.4575,4.3806 z"
       fill="url(#paint2_radial_3086_70996)"
       id="path13"
       style="fill:url(#paint2_radial_3086_70996)" />
    <path
       d="m 54.3067,16.6928 c -0.3074,-0.0768 -0.6148,0.3075 -0.4611,0.538 l 4.3038,7.8391 c 0.0768,0.1537 0.2305,0.1537 0.3074,0 l 4.7649,-8.6076 c 0.1537,-0.3074 0,-0.6917 -0.3074,-0.7686 -0.7685,-0.1537 -1.3834,-0.1537 -1.9214,-0.0768 -0.8453,0.0768 -1.6139,0.3843 -2.3824,0.6148 -0.0769,0 -0.0769,0 -0.1537,0.0769 -0.7686,0.3074 -1.6139,0.6148 -2.613,0.6148 -0.4612,-0.0769 -0.9223,-0.0769 -1.5371,-0.2306 z"
       fill="url(#paint3_linear_3086_70996)"
       id="path15"
       style="fill:url(#paint3_linear_3086_70996)" />
    <path
       d="m 58.3027,16.4571 c 0,-0.0769 0.0769,-0.1537 0.1537,-0.2306 0.0769,0 0.0769,0 0.1537,-0.0768 0.7686,-0.3074 1.4603,-0.538 2.3825,-0.6148 0.538,-0.0769 1.2297,-0.0769 1.9213,0.0768 0.3075,0.0769 0.538,0.4611 0.3075,0.7685 l -4.765,8.6076 c 0,0.0769 -0.0768,0.0769 -0.1537,0.0769 z"
       fill="url(#paint4_linear_3086_70996)"
       id="path17"
       style="fill:url(#paint4_linear_3086_70996)" />
  </g>
  <path
     fill-rule="evenodd"
     clip-rule="evenodd"
     d="m 62.2477,6.41183 c -0.6419,-0.1834 -1.2379,-0.2751 -1.8342,-0.2751 -1.1004,0 -2.109,0.2751 -3.0261,0.7337 -0.9171,0.5043 -1.6049,1.1921 -2.1093,2.1092 -0.5044,0.9171 -0.7337,1.9258 -0.7337,3.118 0,1.1922 0.2752,2.201 0.7796,3.118 0.5042,0.9171 1.2379,1.6049 2.1091,2.1093 0.8714,0.5044 1.8341,0.7795 2.9348,0.7795 1.0086,0 1.9257,-0.1834 2.7512,-0.642 0.8252,-0.4127 1.4671,-1.0546 1.9716,-1.9258 0.5044,-0.8712 0.7337,-1.88 0.7337,-3.0722 v -0.5043 c 0,-0.0641 0,-0.138 1e-4,-0.2173 v -0.0951 c 1e-4,-0.106 -0.0859,-0.192 -0.1919,-0.192 h -4.7527 c -0.106,0 -0.192,0.086 -0.192,0.192 v 1.6793 c 0,0.1061 0.086,0.1921 0.192,0.1921 h 2.1692 c 0.0782,0 0.1383,0.0696 0.1242,0.1465 -0.0454,0.2476 -0.1094,0.4725 -0.1919,0.6788 -0.1834,0.5044 -0.5045,0.8254 -0.963,1.1005 -0.4126,0.2293 -0.9627,0.3668 -1.6505,0.3668 -0.5504,0 -1.1007,-0.1834 -1.5592,-0.4585 -0.5042,-0.321 -0.8712,-0.7337 -1.1463,-1.2839 -0.275,-0.5502 -0.4127,-1.1922 -0.4127,-1.9258 0,-0.7337 0.1377,-1.3756 0.4127,-1.9259 0.2751,-0.5502 0.6421,-1.0087 1.1463,-1.2838 0.5044,-0.321 1.0547,-0.4586 1.6507,-0.4586 0.5504,0 1.1005,0.1376 1.559,0.3668 0.4076,0.2038 0.779,0.5525 1.0819,0.9817 0.0625,0.0886 0.1845,0.1141 0.2741,0.053 l 1.7059,-1.1631 c 0.0833,-0.0568 0.1089,-0.1686 0.054,-0.2532 -0.3134,-0.4831 -0.7328,-0.8908 -1.19,-1.2232 -0.5503,-0.3668 -1.0545,-0.642 -1.6966,-0.8254 z m 14.6864,0.3712 2.0464,-0.5389 c 0.122,-0.0321 0.241,0.0598 0.241,0.1857 v 11.2991 c 0,0.1061 -0.086,0.192 -0.192,0.192 H 76.983 c -0.106,0 -0.192,-0.0859 -0.192,-0.192 V 6.96873 c 0,-0.0872 0.0588,-0.1634 0.1431,-0.1857 z m 24.1384,4.7643 c 0.321,-0.1834 0.642,-0.2751 1.008,-0.2751 0.413,0 0.734,0.1376 1.009,0.2751 0.275,0.1376 0.505,0.4127 0.688,0.7795 0.183,0.3669 0.275,0.7795 0.275,1.2839 0,0.5044 -0.092,0.9171 -0.275,1.2839 -0.138,0.3668 -0.367,0.642 -0.688,0.8254 -0.275,0.1834 -0.642,0.2751 -1.009,0.2751 -0.366,0 -0.733,-0.0917 -1.008,-0.2751 -0.276,-0.1834 -0.505,-0.4586 -0.688,-0.8254 -0.184,-0.3668 -0.275,-0.7795 -0.275,-1.2839 0,-0.5044 0.091,-0.917 0.275,-1.2839 0.137,-0.3209 0.367,-0.5961 0.688,-0.7795 z m 3.301,-1.8799 c -0.642,-0.3669 -1.421,-0.5503 -2.293,-0.5503 -0.825,0 -1.605,0.1834 -2.292,0.5503 -0.688,0.3668 -1.192,0.917 -1.605,1.6048 -0.413,0.6878 -0.596,1.4673 -0.596,2.3385 0,0.8712 0.229,1.6508 0.596,2.3385 0.367,0.6878 0.917,1.2381 1.605,1.6049 0.687,0.3668 1.467,0.5502 2.292,0.5502 0.826,0 1.605,-0.1834 2.293,-0.5502 0.688,-0.3668 1.192,-0.9171 1.605,-1.6049 0.413,-0.6877 0.596,-1.4673 0.596,-2.3385 0,-0.8712 -0.229,-1.6507 -0.596,-2.3385 -0.367,-0.6878 -0.917,-1.238 -1.605,-1.6048 z m -17.355,7.3795 c 0.018,-0.0291 0.07,-0.0157 0.07,0.0186 v 0.6635 c 0,0.106 0.086,0.192 0.192,0.192 h 2.046 c 0.107,0 0.193,-0.086 0.193,-0.192 v -8.1446 c 0,-0.1061 -0.086,-0.1921 -0.193,-0.1921 h -2.046 c -0.106,0 -0.192,0.086 -0.192,0.1921 v 0.738 c 0,0.063 -0.083,0.0895 -0.122,0.0395 -0.128,-0.1674 -0.271,-0.3229 -0.428,-0.4652 -0.504,-0.5044 -1.192,-0.7336 -2.017,-0.7336 -0.734,0 -1.376,0.1834 -1.972,0.5961 -0.55,0.3668 -1.009,0.917 -1.33,1.6048 -0.321,0.6878 -0.458,1.4673 -0.458,2.2927 0,0.8254 0.137,1.6049 0.458,2.2927 0.321,0.6878 0.734,1.1921 1.33,1.6048 0.55,0.4127 1.238,0.5961 1.972,0.5961 0.871,0 1.513,-0.2751 2.063,-0.6419 0.21,-0.14 0.355,-0.3351 0.434,-0.4615 z m -0.847,-1.3727 c -0.321,0.1835 -0.642,0.2752 -1.009,0.2752 -0.366,0 -0.687,-0.0917 -1.008,-0.2752 -0.275,-0.1834 -0.505,-0.4585 -0.688,-0.8253 -0.138,-0.3669 -0.229,-0.7795 -0.229,-1.2381 0,-0.4585 0.046,-0.8253 0.229,-1.1922 0.183,-0.3209 0.413,-0.5961 0.688,-0.7795 0.321,-0.1834 0.642,-0.2751 1.008,-0.2751 0.367,0 0.734,0.0917 1.009,0.2751 0.275,0.1834 0.505,0.4127 0.688,0.7795 0.138,0.321 0.229,0.7337 0.229,1.1922 0,0.4586 -0.046,0.8712 -0.229,1.2381 -0.183,0.3668 -0.413,0.6419 -0.688,0.8253 z m 8.684,-4.4019 c -0.036,0 -0.064,0.0286 -0.064,0.064 v 3.2832 c 0,0.7795 0.32,1.1922 0.962,1.1922 h 0.726 c 0.106,0 0.192,0.086 0.192,0.192 v 1.7252 c 0,0.1061 -0.086,0.1921 -0.192,0.1921 h -1.046 c -0.963,0 -1.743,-0.2752 -2.247,-0.8254 -0.551,-0.5502 -0.826,-1.3297 -0.826,-2.3385 v -3.4208 c 0,-0.0354 -0.028,-0.064 -0.064,-0.064 h -1.418 c -0.132,0 -0.225,-0.1294 -0.182,-0.254 l 0.509,-1.4959 c 0.027,-0.0778 0.1,-0.1301 0.182,-0.1301 h 0.909 c 0.036,0 0.064,-0.0287 0.064,-0.0641 v -2.2954 c 0,-0.0872 0.059,-0.1635 0.143,-0.1857 l 2.127,-0.5601 c 0.081,-0.0214 0.161,0.0398 0.161,0.1238 v 2.9174 c 0,0.0354 0.028,0.0641 0.064,0.0641 h 1.675 c 0.132,0 0.225,0.1293 0.182,0.2539 l -0.509,1.4959 c -0.027,0.0778 -0.1,0.1302 -0.182,0.1302 z M 71.2156,9.11713 c 0.8253,0 1.5131,0.1834 2.1092,0.5503 0.5961,0.3668 1.1004,0.917 1.4214,1.6048 0.3668,0.6878 0.5044,1.4673 0.5044,2.3385 v 0.4041 c 0,0.1061 -0.086,0.192 -0.192,0.192 h -5.4418 c -0.0777,0 -0.1376,0.0687 -0.1243,0.1451 0.0401,0.2295 0.0965,0.4311 0.1639,0.5886 0.1836,0.3668 0.4129,0.6419 0.6878,0.7795 0.2752,0.1375 0.6421,0.2751 1.1007,0.2751 0.4126,0 0.8252,-0.0917 1.1004,-0.2293 0.2653,-0.1137 0.4992,-0.3213 0.7018,-0.5711 0.0697,-0.086 0.1961,-0.1037 0.282,-0.034 l 1.3945,1.1306 c 0.0802,0.065 0.095,0.1822 0.0296,0.2621 -0.3908,0.478 -0.861,0.8421 -1.445,1.0924 -0.6419,0.2751 -1.3298,0.4127 -2.0633,0.4127 -0.8714,0 -1.6508,-0.1834 -2.3386,-0.5503 -0.6878,-0.3668 -1.1922,-0.917 -1.5589,-1.6048 -0.367,-0.6878 -0.5504,-1.4673 -0.5504,-2.3385 0,-0.8712 0.1834,-1.6507 0.5504,-2.3385 0.3667,-0.6878 0.8711,-1.1922 1.513,-1.6049 0.6419,-0.321 1.3297,-0.5044 2.1552,-0.5044 z m -1.5448,3.4849 c -0.0808,0 -0.1415,-0.074 -0.1224,-0.1524 0.0805,-0.3299 0.1971,-0.6 0.3373,-0.8106 0.2752,-0.4127 0.7337,-0.6419 1.3299,-0.6419 0.5501,0 1.0087,0.2292 1.2838,0.6419 0.1371,0.2056 0.2513,0.4795 0.3315,0.8104 0.0191,0.0785 -0.0417,0.1526 -0.1225,0.1526 z"
     fill="#f2f2f4"
     id="path21" />
  <defs
     id="defs52">
    <linearGradient
       id="paint0_linear_3086_70996"
       x1="52.681301"
       y1="6.8039398"
       x2="63.443199"
       y2="26.3486"
       gradientUnits="userSpaceOnUse">
      <stop
         stop-color="#FF9FB2"
         id="stop23" />
      <stop
         offset="1"
         stop-color="#A3C9FF"
         id="stop25" />
    </linearGradient>
    <linearGradient
       id="paint1_linear_3086_70996"
       x1="54.881802"
       y1="4.1567898"
       x2="63.094898"
       y2="35.039101"
       gradientUnits="userSpaceOnUse">
      <stop
         stop-color="#FFD1A8"
         id="stop28" />
      <stop
         offset="0.9991"
         stop-color="#FF7284"
         id="stop30" />
    </linearGradient>
    <radialGradient
       id="paint2_radial_3086_70996"
       cx="0"
       cy="0"
       r="1"
       gradientUnits="userSpaceOnUse"
       gradientTransform="matrix(-6.5812051,3.8037967,-4.5456867,-7.8647989,60.9605,11.4539)">
      <stop
         offset="0.1168"
         stop-color="#846C6B"
         id="stop33" />
      <stop
         offset="0.7344"
         stop-color="#1C0008"
         id="stop35" />
      <stop
         offset="1"
         stop-color="#5F4A48"
         id="stop37" />
    </radialGradient>
    <linearGradient
       id="paint3_linear_3086_70996"
       x1="58.564201"
       y1="15.7871"
       x2="58.564201"
       y2="25.1915"
       gradientUnits="userSpaceOnUse">
      <stop
         stop-color="#866767"
         id="stop40" />
      <stop
         offset="0.4688"
         stop-color="#180208"
         id="stop42" />
      <stop
         offset="1"
         stop-color="#2E1015"
         id="stop44" />
    </linearGradient>
    <linearGradient
       id="paint4_linear_3086_70996"
       x1="60.812199"
       y1="15.5525"
       x2="60.812199"
       y2="25.8125"
       gradientUnits="userSpaceOnUse">
      <stop
         stop-color="#A77874"
         id="stop47" />
      <stop
         offset="1"
         stop-color="#090404"
         id="stop49" />
    </linearGradient>
  </defs>
</svg>
