<svg width="114" height="114" viewBox="0 0 114 114" fill="none" xmlns="http://www.w3.org/2000/svg">
<g filter="url(#filter0_d_436_2605)">
<path d="M57 7C84.5316 7 107 29.4684 107 57C107 84.5316 84.5316 107 57 107C29.4684 107 7 84.5316 7 57C7 29.4684 29.4684 7 57 7Z" fill="url(#paint0_linear_436_2605)"/>
<g opacity="0.6" filter="url(#filter1_f_436_2605)">
<path d="M63.383 7.4036C61.2929 7.13728 59.1625 7 57 7C29.3858 7 7 29.3858 7 57C7 84.6142 29.3858 107 57 107C84.6142 107 107 84.6142 107 57C107 31.732 88.2566 10.8417 63.9149 7.47428" stroke="url(#paint1_linear_436_2605)" stroke-width="2" stroke-linecap="round"/>
</g>
<g opacity="0.6" filter="url(#filter2_df_436_2605)">
<path d="M56.9854 25.6826C39.6928 25.6826 25.6743 39.7011 25.6743 56.9937C25.6743 64.8049 28.5346 71.9479 33.2649 77.4328" stroke="white" stroke-width="3" stroke-linecap="round"/>
<path d="M50.5693 19.71L57.7861 25.7082L51.7879 32.925" stroke="white" stroke-width="3" stroke-linecap="round"/>
</g>
<g opacity="0.6" filter="url(#filter3_df_436_2605)">
<path d="M56.5019 88.6396C73.7945 88.6396 87.813 74.6212 87.813 57.3286C87.813 49.5174 84.9527 42.3743 80.2224 36.8895" stroke="white" stroke-width="3" stroke-linecap="round"/>
<path d="M62.918 94.6123L55.7012 88.6141L61.6994 81.3973" stroke="white" stroke-width="3" stroke-linecap="round"/>
</g>
<g filter="url(#filter4_df_436_2605)">
<path d="M39.8685 63V52.8182H43.6867C44.4689 52.8182 45.1251 52.964 45.6555 53.2557C46.1891 53.5473 46.5918 53.9484 46.8635 54.4588C47.1386 54.9659 47.2762 55.5426 47.2762 56.1889C47.2762 56.8419 47.1386 57.4219 46.8635 57.929C46.5885 58.4361 46.1824 58.8355 45.6455 59.1271C45.1086 59.4155 44.4474 59.5597 43.6618 59.5597H41.1313V58.0433H43.4133C43.8706 58.0433 44.2452 57.9638 44.5368 57.8047C44.8285 57.6456 45.0439 57.4268 45.1831 57.1484C45.3257 56.87 45.3969 56.5502 45.3969 56.1889C45.3969 55.8277 45.3257 55.5095 45.1831 55.2344C45.0439 54.9593 44.8269 54.7455 44.5319 54.593C44.2402 54.4373 43.864 54.3594 43.4033 54.3594H41.713V63H39.8685ZM48.8783 63V52.8182H50.7227V61.4538H55.2071V63H48.8783ZM58.4983 63H56.5296L60.1141 52.8182H62.3911L65.9806 63H64.0118L61.2923 54.9062H61.2128L58.4983 63ZM58.5629 59.0078H63.9323V60.4893H58.5629V59.0078ZM65.5866 52.8182H67.6697L70.1604 57.3224H70.2599L72.7506 52.8182H74.8337L71.1299 59.2017V63H69.2904V59.2017L65.5866 52.8182Z" fill="#191919"/>
</g>
</g>
<defs>
<filter id="filter0_d_436_2605" x="0" y="0" width="114" height="114" filterUnits="userSpaceOnUse" color-interpolation-filters="sRGB">
<feFlood flood-opacity="0" result="BackgroundImageFix"/>
<feColorMatrix in="SourceAlpha" type="matrix" values="0 0 0 0 0 0 0 0 0 0 0 0 0 0 0 0 0 0 127 0" result="hardAlpha"/>
<feOffset/>
<feGaussianBlur stdDeviation="3"/>
<feComposite in2="hardAlpha" operator="out"/>
<feColorMatrix type="matrix" values="0 0 0 0 1 0 0 0 0 1 0 0 0 0 1 0 0 0 0.12 0"/>
<feBlend mode="normal" in2="BackgroundImageFix" result="effect1_dropShadow_436_2605"/>
<feBlend mode="normal" in="SourceGraphic" in2="effect1_dropShadow_436_2605" result="shape"/>
</filter>
<filter id="filter1_f_436_2605" x="5" y="5" width="104" height="104" filterUnits="userSpaceOnUse" color-interpolation-filters="sRGB">
<feFlood flood-opacity="0" result="BackgroundImageFix"/>
<feBlend mode="normal" in="SourceGraphic" in2="BackgroundImageFix" result="shape"/>
<feGaussianBlur stdDeviation="0.5" result="effect1_foregroundBlur_436_2605"/>
</filter>
<filter id="filter2_df_436_2605" x="18.1743" y="12.21" width="47.7241" height="72.7227" filterUnits="userSpaceOnUse" color-interpolation-filters="sRGB">
<feFlood flood-opacity="0" result="BackgroundImageFix"/>
<feColorMatrix in="SourceAlpha" type="matrix" values="0 0 0 0 0 0 0 0 0 0 0 0 0 0 0 0 0 0 127 0" result="hardAlpha"/>
<feOffset/>
<feGaussianBlur stdDeviation="3"/>
<feComposite in2="hardAlpha" operator="out"/>
<feColorMatrix type="matrix" values="0 0 0 0 1 0 0 0 0 1 0 0 0 0 1 0 0 0 1 0"/>
<feBlend mode="normal" in2="BackgroundImageFix" result="effect1_dropShadow_436_2605"/>
<feBlend mode="normal" in="SourceGraphic" in2="effect1_dropShadow_436_2605" result="shape"/>
<feGaussianBlur stdDeviation="0.5" result="effect2_foregroundBlur_436_2605"/>
</filter>
<filter id="filter3_df_436_2605" x="47.5889" y="29.3896" width="47.7241" height="72.7227" filterUnits="userSpaceOnUse" color-interpolation-filters="sRGB">
<feFlood flood-opacity="0" result="BackgroundImageFix"/>
<feColorMatrix in="SourceAlpha" type="matrix" values="0 0 0 0 0 0 0 0 0 0 0 0 0 0 0 0 0 0 127 0" result="hardAlpha"/>
<feOffset/>
<feGaussianBlur stdDeviation="3"/>
<feComposite in2="hardAlpha" operator="out"/>
<feColorMatrix type="matrix" values="0 0 0 0 1 0 0 0 0 1 0 0 0 0 1 0 0 0 1 0"/>
<feBlend mode="normal" in2="BackgroundImageFix" result="effect1_dropShadow_436_2605"/>
<feBlend mode="normal" in="SourceGraphic" in2="effect1_dropShadow_436_2605" result="shape"/>
<feGaussianBlur stdDeviation="0.5" result="effect2_foregroundBlur_436_2605"/>
</filter>
<filter id="filter4_df_436_2605" x="33.8687" y="46.8184" width="46.9648" height="22.1816" filterUnits="userSpaceOnUse" color-interpolation-filters="sRGB">
<feFlood flood-opacity="0" result="BackgroundImageFix"/>
<feColorMatrix in="SourceAlpha" type="matrix" values="0 0 0 0 0 0 0 0 0 0 0 0 0 0 0 0 0 0 127 0" result="hardAlpha"/>
<feOffset/>
<feGaussianBlur stdDeviation="3"/>
<feComposite in2="hardAlpha" operator="out"/>
<feColorMatrix type="matrix" values="0 0 0 0 1 0 0 0 0 1 0 0 0 0 1 0 0 0 1 0"/>
<feBlend mode="normal" in2="BackgroundImageFix" result="effect1_dropShadow_436_2605"/>
<feBlend mode="normal" in="SourceGraphic" in2="effect1_dropShadow_436_2605" result="shape"/>
<feGaussianBlur stdDeviation="0.25" result="effect2_foregroundBlur_436_2605"/>
</filter>
<linearGradient id="paint0_linear_436_2605" x1="42.9127" y1="4.1231" x2="76.7313" y2="131.285" gradientUnits="userSpaceOnUse">
<stop stop-color="#FFD1A8"/>
<stop offset="0.9991" stop-color="#FF7284"/>
</linearGradient>
<linearGradient id="paint1_linear_436_2605" x1="79" y1="102" x2="30.5" y2="13.5" gradientUnits="userSpaceOnUse">
<stop stop-color="#FF7284"/>
<stop offset="1" stop-color="#FFD1A8"/>
</linearGradient>
</defs>
</svg>
