<?xml version="1.0" encoding="UTF-8" standalone="no"?>
<svg
   width="146"
   height="146"
   viewBox="0 0 146 146"
   fill="none"
   version="1.1"
   id="svg161"
   sodipodi:docname="gel.svg"
   inkscape:version="1.1.2 (0a00cf5339, 2022-02-04)"
   xmlns:inkscape="http://www.inkscape.org/namespaces/inkscape"
   xmlns:sodipodi="http://sodipodi.sourceforge.net/DTD/sodipodi-0.dtd"
   xmlns="http://www.w3.org/2000/svg"
   xmlns:svg="http://www.w3.org/2000/svg">
  <sodipodi:namedview
     id="namedview163"
     pagecolor="#ffffff"
     bordercolor="#666666"
     borderopacity="1.0"
     inkscape:pageshadow="2"
     inkscape:pageopacity="0.0"
     inkscape:pagecheckerboard="0"
     showgrid="false"
     fit-margin-top="0"
     fit-margin-left="0"
     fit-margin-right="0"
     fit-margin-bottom="0"
     inkscape:zoom="5.3561644"
     inkscape:cx="72.90665"
     inkscape:cy="72.90665"
     inkscape:window-width="1920"
     inkscape:window-height="1016"
     inkscape:window-x="0"
     inkscape:window-y="0"
     inkscape:window-maximized="1"
     inkscape:current-layer="svg161" />
  <g
     filter="url(#filter0_d_473_2615)"
     id="g8">
    <path
       d="m 101.97,52.0768 c -0.009,1.4358 -1.33,2.4513 -2.759,2.3011 -3.5413,-0.3723 -6.7859,-0.3413 -9.8191,-0.0257 -6.6025,0.687 -12.0895,2.7211 -17.1481,4.5963 l -0.011,0.0041 c -0.3061,0.1135 -0.6107,0.2264 -0.9138,0.3384 -5.3713,1.9842 -10.3208,3.6911 -16.1931,3.8264 -2.3424,0.0541 -4.8661,-0.1425 -7.645,-0.701 -2.3836,-0.4788 -4.2878,-2.2962 -4.76,-4.68 C 42.3466,55.8476 42.1504,53.8947 42.1504,51.8961 42.1504,35.385 55.5415,22 72.0602,22 88.579,22 101.97,35.385 101.97,51.8961"
       stroke="url(#paint0_linear_473_2615)"
       stroke-width="2"
       stroke-linecap="round"
       id="path2"
       style="stroke:url(#paint0_linear_473_2615)" />
    <path
       d="m 103.565,59.7103 c 2.356,0.469 3.464,3.1015 2.313,5.2032 L 73.4299,124.168 c -0.4728,0.865 -1.718,0.865 -2.191,0 L 41.8408,70.4826 c -1.1077,-2.0226 0.9447,-4.4299 3.1938,-3.8916 3.7636,0.9006 7.2033,1.2389 10.4323,1.1646 6.794,-0.1562 12.4452,-2.1431 17.83,-4.1254 0.2737,-0.1007 0.5467,-0.2014 0.8193,-0.302 5.1436,-1.8979 10.0984,-3.7261 16.0642,-4.3447 3.7989,-0.3939 8.0562,-0.2983 13.0316,0.6579"
       stroke="url(#paint1_linear_473_2615)"
       stroke-width="2"
       stroke-linecap="round"
       id="path4"
       style="stroke:url(#paint1_linear_473_2615)" />
    <path
       d="M 72.373,124.195 V 64.375"
       stroke="url(#paint2_linear_473_2615)"
       stroke-width="2"
       stroke-linecap="round"
       id="path6"
       style="stroke:url(#paint2_linear_473_2615)" />
  </g>
  <g
     filter="url(#filter1_d_473_2615)"
     id="g12">
    <path
       d="M 73,5 C 35.4446,5 5,35.4446 5,73 c 0,37.555 30.4446,68 68,68 37.555,0 68,-30.445 68,-68 C 141,35.5462 110.72,5.16466 73.3044,5.00067"
       stroke="#ffffff"
       stroke-width="2"
       stroke-linecap="round"
       id="path10" />
  </g>
  <g
     filter="url(#filter2_dd_473_2615)"
     id="g20">
    <path
       d="m 102.438,52.0768 c -0.008,1.4358 -1.33,2.4513 -2.7583,2.3011 -3.5413,-0.3723 -6.7859,-0.3413 -9.8191,-0.0257 -6.6024,0.687 -12.0894,2.7211 -17.1481,4.5963 l -0.011,0.0041 c -0.3061,0.1135 -0.6107,0.2264 -0.9138,0.3384 -5.3713,1.9842 -10.3208,3.6911 -16.193,3.8264 -2.3425,0.0541 -4.8662,-0.1425 -7.6451,-0.701 -2.3835,-0.4788 -4.2877,-2.2962 -4.76,-4.68 C 42.8154,55.8476 42.6191,53.8947 42.6191,51.8961 42.6191,35.385 56.0103,22 72.5289,22 89.0478,22 102.439,35.385 102.439,51.8961"
       stroke="url(#paint3_linear_473_2615)"
       stroke-width="2"
       stroke-linecap="round"
       id="path14"
       style="stroke:url(#paint3_linear_473_2615)" />
    <path
       d="m 104.033,59.7103 c 2.357,0.469 3.464,3.1015 2.314,5.2032 L 73.8987,124.168 c -0.4729,0.865 -1.7181,0.865 -2.1911,0 L 42.3095,70.4826 c -1.1077,-2.0226 0.9448,-4.4299 3.1939,-3.8916 3.7636,0.9006 7.2032,1.2389 10.4322,1.1646 6.7941,-0.1562 12.4452,-2.1431 17.83,-4.1254 0.2737,-0.1007 0.5468,-0.2014 0.8193,-0.302 5.1436,-1.8979 10.0984,-3.7261 16.0642,-4.3447 3.7989,-0.3939 8.0563,-0.2983 13.0319,0.6579"
       stroke="url(#paint4_linear_473_2615)"
       stroke-width="2"
       stroke-linecap="round"
       id="path16"
       style="stroke:url(#paint4_linear_473_2615)" />
    <path
       d="M 72.8418,124.195 V 64.375"
       stroke="url(#paint5_linear_473_2615)"
       stroke-width="2"
       stroke-linecap="round"
       id="path18"
       style="stroke:url(#paint5_linear_473_2615)" />
  </g>
  <g
     filter="url(#filter3_f_473_2615)"
     id="g24">
    <path
       d="M 73,5 C 35.4446,5 5,35.4446 5,73 c 0,37.555 30.4446,68 68,68 37.555,0 68,-30.445 68,-68 C 141,35.5462 110.72,5.16466 73.3044,5.00067"
       stroke="#ffffff"
       stroke-width="2"
       stroke-linecap="round"
       id="path22" />
  </g>
  <g
     filter="url(#filter4_f_473_2615)"
     id="g28">
    <ellipse
       cx="47.438999"
       cy="35.213001"
       rx="5.1474199"
       ry="3.47769"
       transform="rotate(-56.8124,47.439,35.213)"
       fill="#ffffff"
       fill-opacity="0.5"
       id="ellipse26" />
  </g>
  <g
     filter="url(#filter5_f_473_2615)"
     id="g32">
    <ellipse
       cx="100.963"
       cy="135.07899"
       rx="5.1474199"
       ry="3.0218401"
       transform="rotate(-27.8971,100.963,135.079)"
       fill="#ffffff"
       fill-opacity="0.7"
       id="ellipse30" />
  </g>
  <g
     filter="url(#filter6_f_473_2615)"
     id="g36">
    <ellipse
       cx="95.565697"
       cy="8.8244801"
       rx="5.1474199"
       ry="3.2518499"
       transform="rotate(20.1266,95.5657,8.82448)"
       fill="#ffffff"
       fill-opacity="0.7"
       id="ellipse34" />
  </g>
  <defs
     id="defs159">
    <filter
       id="filter0_d_473_2615"
       x="36.5303"
       y="17"
       width="74.8032"
       height="112.816"
       filterUnits="userSpaceOnUse"
       color-interpolation-filters="sRGB">
      <feFlood
         flood-opacity="0"
         result="BackgroundImageFix"
         id="feFlood38" />
      <feColorMatrix
         in="SourceAlpha"
         type="matrix"
         values="0 0 0 0 0 0 0 0 0 0 0 0 0 0 0 0 0 0 127 0"
         result="hardAlpha"
         id="feColorMatrix40" />
      <feOffset
         id="feOffset42" />
      <feGaussianBlur
         stdDeviation="2"
         id="feGaussianBlur44" />
      <feComposite
         in2="hardAlpha"
         operator="out"
         id="feComposite46" />
      <feColorMatrix
         type="matrix"
         values="0 0 0 0 0.952941 0 0 0 0 0.482353 0 0 0 0 0.517647 0 0 0 1 0"
         id="feColorMatrix48" />
      <feBlend
         mode="normal"
         in2="BackgroundImageFix"
         result="effect1_dropShadow_473_2615"
         id="feBlend50" />
      <feBlend
         mode="normal"
         in="SourceGraphic"
         in2="effect1_dropShadow_473_2615"
         result="shape"
         id="feBlend52" />
    </filter>
    <filter
       id="filter1_d_473_2615"
       x="0"
       y="0"
       width="146"
       height="146"
       filterUnits="userSpaceOnUse"
       color-interpolation-filters="sRGB">
      <feFlood
         flood-opacity="0"
         result="BackgroundImageFix"
         id="feFlood55" />
      <feColorMatrix
         in="SourceAlpha"
         type="matrix"
         values="0 0 0 0 0 0 0 0 0 0 0 0 0 0 0 0 0 0 127 0"
         result="hardAlpha"
         id="feColorMatrix57" />
      <feOffset
         id="feOffset59" />
      <feGaussianBlur
         stdDeviation="2"
         id="feGaussianBlur61" />
      <feComposite
         in2="hardAlpha"
         operator="out"
         id="feComposite63" />
      <feColorMatrix
         type="matrix"
         values="0 0 0 0 1 0 0 0 0 1 0 0 0 0 1 0 0 0 1 0"
         id="feColorMatrix65" />
      <feBlend
         mode="normal"
         in2="BackgroundImageFix"
         result="effect1_dropShadow_473_2615"
         id="feBlend67" />
      <feBlend
         mode="normal"
         in="SourceGraphic"
         in2="effect1_dropShadow_473_2615"
         result="shape"
         id="feBlend69" />
    </filter>
    <filter
       id="filter2_dd_473_2615"
       x="36.999001"
       y="17"
       width="74.8032"
       height="112.816"
       filterUnits="userSpaceOnUse"
       color-interpolation-filters="sRGB">
      <feFlood
         flood-opacity="0"
         result="BackgroundImageFix"
         id="feFlood72" />
      <feColorMatrix
         in="SourceAlpha"
         type="matrix"
         values="0 0 0 0 0 0 0 0 0 0 0 0 0 0 0 0 0 0 127 0"
         result="hardAlpha"
         id="feColorMatrix74" />
      <feOffset
         id="feOffset76" />
      <feGaussianBlur
         stdDeviation="2"
         id="feGaussianBlur78" />
      <feComposite
         in2="hardAlpha"
         operator="out"
         id="feComposite80" />
      <feColorMatrix
         type="matrix"
         values="0 0 0 0 0.952941 0 0 0 0 0.482353 0 0 0 0 0.517647 0 0 0 1 0"
         id="feColorMatrix82" />
      <feBlend
         mode="normal"
         in2="BackgroundImageFix"
         result="effect1_dropShadow_473_2615"
         id="feBlend84" />
      <feColorMatrix
         in="SourceAlpha"
         type="matrix"
         values="0 0 0 0 0 0 0 0 0 0 0 0 0 0 0 0 0 0 127 0"
         result="hardAlpha"
         id="feColorMatrix86" />
      <feOffset
         id="feOffset88" />
      <feGaussianBlur
         stdDeviation="2"
         id="feGaussianBlur90" />
      <feComposite
         in2="hardAlpha"
         operator="out"
         id="feComposite92" />
      <feColorMatrix
         type="matrix"
         values="0 0 0 0 0.952941 0 0 0 0 0.482353 0 0 0 0 0.517647 0 0 0 1 0"
         id="feColorMatrix94" />
      <feBlend
         mode="normal"
         in2="effect1_dropShadow_473_2615"
         result="effect2_dropShadow_473_2615"
         id="feBlend96" />
      <feBlend
         mode="normal"
         in="SourceGraphic"
         in2="effect2_dropShadow_473_2615"
         result="shape"
         id="feBlend98" />
    </filter>
    <filter
       id="filter3_f_473_2615"
       x="3"
       y="3"
       width="140"
       height="140"
       filterUnits="userSpaceOnUse"
       color-interpolation-filters="sRGB">
      <feFlood
         flood-opacity="0"
         result="BackgroundImageFix"
         id="feFlood101" />
      <feBlend
         mode="normal"
         in="SourceGraphic"
         in2="BackgroundImageFix"
         result="shape"
         id="feBlend103" />
      <feGaussianBlur
         stdDeviation="0.5"
         result="effect1_foregroundBlur_473_2615"
         id="feGaussianBlur105" />
    </filter>
    <filter
       id="filter4_f_473_2615"
       x="38.388199"
       y="25.502001"
       width="18.101601"
       height="19.4219"
       filterUnits="userSpaceOnUse"
       color-interpolation-filters="sRGB">
      <feFlood
         flood-opacity="0"
         result="BackgroundImageFix"
         id="feFlood108" />
      <feBlend
         mode="normal"
         in="SourceGraphic"
         in2="BackgroundImageFix"
         result="shape"
         id="feBlend110" />
      <feGaussianBlur
         stdDeviation="2.5"
         result="effect1_foregroundBlur_473_2615"
         id="feGaussianBlur112" />
    </filter>
    <filter
       id="filter5_f_473_2615"
       x="91.1978"
       y="126.482"
       width="19.5303"
       height="17.1924"
       filterUnits="userSpaceOnUse"
       color-interpolation-filters="sRGB">
      <feFlood
         flood-opacity="0"
         result="BackgroundImageFix"
         id="feFlood115" />
      <feBlend
         mode="normal"
         in="SourceGraphic"
         in2="BackgroundImageFix"
         result="shape"
         id="feBlend117" />
      <feGaussianBlur
         stdDeviation="2.5"
         result="effect1_foregroundBlur_473_2615"
         id="feGaussianBlur119" />
    </filter>
    <filter
       id="filter6_f_473_2615"
       x="85.6035"
       y="0.29394501"
       width="19.924299"
       height="17.060499"
       filterUnits="userSpaceOnUse"
       color-interpolation-filters="sRGB">
      <feFlood
         flood-opacity="0"
         result="BackgroundImageFix"
         id="feFlood122" />
      <feBlend
         mode="normal"
         in="SourceGraphic"
         in2="BackgroundImageFix"
         result="shape"
         id="feBlend124" />
      <feGaussianBlur
         stdDeviation="2.5"
         result="effect1_foregroundBlur_473_2615"
         id="feGaussianBlur126" />
    </filter>
    <linearGradient
       id="paint0_linear_473_2615"
       x1="71.813202"
       y1="58.694302"
       x2="71.813202"
       y2="22.406601"
       gradientUnits="userSpaceOnUse">
      <stop
         stop-color="#F37B84"
         id="stop129" />
      <stop
         offset="1"
         stop-color="#F09792"
         id="stop131" />
    </linearGradient>
    <linearGradient
       id="paint1_linear_473_2615"
       x1="66.083603"
       y1="115.036"
       x2="99.029099"
       y2="59.172199"
       gradientUnits="userSpaceOnUse">
      <stop
         stop-color="#F37B84"
         id="stop134" />
      <stop
         offset="1"
         stop-color="#F09792"
         id="stop136" />
    </linearGradient>
    <linearGradient
       id="paint2_linear_473_2615"
       x1="66.287102"
       y1="116.468"
       x2="99.919601"
       y2="58.746799"
       gradientUnits="userSpaceOnUse">
      <stop
         stop-color="#F37B84"
         id="stop139" />
      <stop
         offset="1"
         stop-color="#F09792"
         id="stop141" />
    </linearGradient>
    <linearGradient
       id="paint3_linear_473_2615"
       x1="72.281898"
       y1="58.694302"
       x2="72.281898"
       y2="22.406601"
       gradientUnits="userSpaceOnUse">
      <stop
         stop-color="#F37B84"
         id="stop144" />
      <stop
         offset="1"
         stop-color="#F09792"
         id="stop146" />
    </linearGradient>
    <linearGradient
       id="paint4_linear_473_2615"
       x1="66.552399"
       y1="115.036"
       x2="99.497803"
       y2="59.172199"
       gradientUnits="userSpaceOnUse">
      <stop
         stop-color="#F37B84"
         id="stop149" />
      <stop
         offset="1"
         stop-color="#F09792"
         id="stop151" />
    </linearGradient>
    <linearGradient
       id="paint5_linear_473_2615"
       x1="66.755898"
       y1="116.468"
       x2="100.388"
       y2="58.746799"
       gradientUnits="userSpaceOnUse">
      <stop
         stop-color="#F37B84"
         id="stop154" />
      <stop
         offset="1"
         stop-color="#F09792"
         id="stop156" />
    </linearGradient>
  </defs>
</svg>
