<?xml version="1.0" encoding="UTF-8" standalone="no"?>
<svg
   width="154"
   height="154"
   viewBox="0 0 154 154"
   fill="none"
   version="1.1"
   id="svg78"
   sodipodi:docname="RaaS.svg"
   inkscape:version="1.1.2 (0a00cf5339, 2022-02-04)"
   xmlns:inkscape="http://www.inkscape.org/namespaces/inkscape"
   xmlns:sodipodi="http://sodipodi.sourceforge.net/DTD/sodipodi-0.dtd"
   xmlns="http://www.w3.org/2000/svg"
   xmlns:svg="http://www.w3.org/2000/svg">
  <sodipodi:namedview
     id="namedview80"
     pagecolor="#ffffff"
     bordercolor="#666666"
     borderopacity="1.0"
     inkscape:pageshadow="2"
     inkscape:pageopacity="0.0"
     inkscape:pagecheckerboard="0"
     showgrid="false"
     fit-margin-top="0"
     fit-margin-left="0"
     fit-margin-right="0"
     fit-margin-bottom="0"
     inkscape:zoom="1.9744332"
     inkscape:cx="132.94955"
     inkscape:cy="117.75532"
     inkscape:window-width="1920"
     inkscape:window-height="1016"
     inkscape:window-x="0"
     inkscape:window-y="0"
     inkscape:window-maximized="1"
     inkscape:current-layer="svg78" />
  <g
     filter="url(#filter0_dd_472_2493)"
     id="g12"
     transform="translate(0,11.083008)">
    <path
       d="m 70.3308,66.5336 c 0.6879,-1.3758 0.2293,-3.5541 -2.5164,-3.5541 -7.2281,0 -31.3006,31.7579 -15.3643,31.7579 7.8948,0 18.5643,-20.4174 16.2842,-21.0791 M 68.611,73.6419 c -2.7555,0 -11.9694,16.0509 -3.4394,16.0509 6.4203,0 10.0179,-9.8266 12.5179,-15.9363"
       stroke="#d72ef2"
       stroke-width="2"
       stroke-linecap="round"
       id="path2" />
    <path
       d="M 33.0702,59.8818 C 28.6828,79.4674 21.1887,110.098 9.68167,110.098 1.1887,110.098 5.18784,98.417 14.1932,98.417"
       stroke="#d72ef2"
       stroke-width="2"
       stroke-linecap="round"
       id="path4" />
    <path
       d="m 14.1846,86.417 c -24.4976,2.5 7.9277,-43.3867 34.2512,-43.3867 23.1715,0 0.7771,28.9482 -18.2466,36.2481 -0.7772,0.2982 -0.9588,1.3866 -0.3388,1.9421 9.5607,8.5663 17.3754,31.7455 32.9166,31.7455 12.6114,0 18.4586,-8.14 16.6242,-16.6237"
       stroke="#d72ef2"
       stroke-width="2"
       stroke-linecap="round"
       id="path6" />
    <path
       d="m 145.428,16.8884 c 5.503,-1.949 5.274,-10.96664 -6.305,-10.96664 -8.837,-0.20853 -18.569,6.44324 -18.569,15.66944 0,17.1953 26.135,8.775 26.135,28.3412 0,10.4338 -16.165,30.3568 -31.642,30.3568 -20.4101,0 -3.215,-38.0636 15.477,-38.0636 6.42,0 7.915,4.586 7.915,7.6815"
       stroke="#d72ef2"
       stroke-width="2"
       stroke-linecap="round"
       id="path8" />
    <path
       d="m 99.9167,54.9203 c 0.6883,-1.3757 0.2293,-3.5541 -2.5163,-3.5541 -7.2282,0 -31.3007,31.7579 -15.3644,31.7579 7.8948,0 18.564,-20.4174 16.2842,-21.0791 M 98.197,62.0286 c -2.7556,0 -11.9694,16.0509 -3.4395,16.0509 6.4205,0 10.4315,-10.2133 12.9315,-15.7133"
       stroke="#d72ef2"
       stroke-width="2"
       stroke-linecap="round"
       id="path10" />
  </g>
  <g
     filter="url(#filter1_f_472_2493)"
     id="g16"
     transform="translate(0,11.083008)">
    <ellipse
       cx="74.077499"
       cy="109.779"
       rx="2.0650499"
       ry="6.5927"
       transform="rotate(-127.224,74.0775,109.779)"
       fill="#ffffff"
       fill-opacity="0.45"
       id="ellipse14" />
  </g>
  <g
     filter="url(#filter2_f_472_2493)"
     id="g20"
     transform="translate(0,11.083008)">
    <ellipse
       cx="23.888599"
       cy="53.686798"
       rx="2.4352601"
       ry="11.7926"
       transform="rotate(-127.224,23.8886,53.6868)"
       fill="#ffffff"
       fill-opacity="0.45"
       id="ellipse18" />
  </g>
  <g
     filter="url(#filter3_f_472_2493)"
     id="g24"
     transform="translate(0,11.083008)">
    <ellipse
       cx="124.829"
       cy="12.0444"
       rx="2.2560799"
       ry="6.8021002"
       transform="rotate(-134.054,124.829,12.0444)"
       fill="#ffffff"
       fill-opacity="0.55"
       id="ellipse22" />
  </g>
  <defs
     id="defs76">
    <filter
       id="filter0_dd_472_2493"
       x="0"
       y="0.91699201"
       width="153.922"
       height="117.05"
       filterUnits="userSpaceOnUse"
       color-interpolation-filters="sRGB">
      <feFlood
         flood-opacity="0"
         result="BackgroundImageFix"
         id="feFlood26" />
      <feColorMatrix
         in="SourceAlpha"
         type="matrix"
         values="0 0 0 0 0 0 0 0 0 0 0 0 0 0 0 0 0 0 127 0"
         result="hardAlpha"
         id="feColorMatrix28" />
      <feOffset
         id="feOffset30" />
      <feGaussianBlur
         stdDeviation="2"
         id="feGaussianBlur32" />
      <feComposite
         in2="hardAlpha"
         operator="out"
         id="feComposite34" />
      <feColorMatrix
         type="matrix"
         values="0 0 0 0 0.843137 0 0 0 0 0.180392 0 0 0 0 0.94902 0 0 0 1 0"
         id="feColorMatrix36" />
      <feBlend
         mode="normal"
         in2="BackgroundImageFix"
         result="effect1_dropShadow_472_2493"
         id="feBlend38" />
      <feColorMatrix
         in="SourceAlpha"
         type="matrix"
         values="0 0 0 0 0 0 0 0 0 0 0 0 0 0 0 0 0 0 127 0"
         result="hardAlpha"
         id="feColorMatrix40" />
      <feOffset
         id="feOffset42" />
      <feGaussianBlur
         stdDeviation="2"
         id="feGaussianBlur44" />
      <feComposite
         in2="hardAlpha"
         operator="out"
         id="feComposite46" />
      <feColorMatrix
         type="matrix"
         values="0 0 0 0 0.843137 0 0 0 0 0.180392 0 0 0 0 0.94902 0 0 0 1 0"
         id="feColorMatrix48" />
      <feBlend
         mode="normal"
         in2="effect1_dropShadow_472_2493"
         result="effect2_dropShadow_472_2493"
         id="feBlend50" />
      <feBlend
         mode="normal"
         in="SourceGraphic"
         in2="effect2_dropShadow_472_2493"
         result="shape"
         id="feBlend52" />
    </filter>
    <filter
       id="filter1_f_472_2493"
       x="63.680199"
       y="100.464"
       width="20.794901"
       height="18.6299"
       filterUnits="userSpaceOnUse"
       color-interpolation-filters="sRGB">
      <feFlood
         flood-opacity="0"
         result="BackgroundImageFix"
         id="feFlood55" />
      <feBlend
         mode="normal"
         in="SourceGraphic"
         in2="BackgroundImageFix"
         result="shape"
         id="feBlend57" />
      <feGaussianBlur
         stdDeviation="2.5"
         result="effect1_foregroundBlur_472_2493"
         id="feGaussianBlur59" />
    </filter>
    <filter
       id="filter2_f_472_2493"
       x="8.3823204"
       y="40.292"
       width="31.012699"
       height="26.789101"
       filterUnits="userSpaceOnUse"
       color-interpolation-filters="sRGB">
      <feFlood
         flood-opacity="0"
         result="BackgroundImageFix"
         id="feFlood62" />
      <feBlend
         mode="normal"
         in="SourceGraphic"
         in2="BackgroundImageFix"
         result="shape"
         id="feBlend64" />
      <feGaussianBlur
         stdDeviation="3"
         result="effect1_foregroundBlur_472_2493"
         id="feGaussianBlur66" />
    </filter>
    <filter
       id="filter3_f_472_2493"
       x="114.693"
       y="2.0429699"
       width="20.2705"
       height="20.002899"
       filterUnits="userSpaceOnUse"
       color-interpolation-filters="sRGB">
      <feFlood
         flood-opacity="0"
         result="BackgroundImageFix"
         id="feFlood69" />
      <feBlend
         mode="normal"
         in="SourceGraphic"
         in2="BackgroundImageFix"
         result="shape"
         id="feBlend71" />
      <feGaussianBlur
         stdDeviation="2.5"
         result="effect1_foregroundBlur_472_2493"
         id="feGaussianBlur73" />
    </filter>
  </defs>
</svg>
